<?xml version="1.0" standalone="no"?>
<!DOCTYPE svg PUBLIC "-//W3C//DTD SVG 20010904//EN"
 "http://www.w3.org/TR/2001/REC-SVG-20010904/DTD/svg10.dtd">
<svg version="1.0" xmlns="http://www.w3.org/2000/svg"
 width="222.000000pt" height="215.000000pt" viewBox="0 0 222.000000 215.000000"
 preserveAspectRatio="xMidYMid meet">
<metadata>
Created by potrace 1.12, written by Peter Selinger 2001-2015
</metadata>
<g transform="translate(0.000000,215.000000) scale(0.100000,-0.100000)"
fill="#000000" stroke="none">
<path d="M489 1830 c-20 -10 -43 -29 -51 -42 -8 -13 -63 -161 -121 -331 l-107
-307 0 -410 c0 -296 3 -416 12 -435 18 -39 57 -55 138 -55 118 0 150 30 150
140 l0 60 600 0 600 0 0 -60 c0 -110 33 -140 151 -140 80 0 119 16 137 55 9
19 12 139 12 435 l0 409 -107 308 c-58 169 -113 318 -121 331 -8 13 -32 32
-53 43 -37 18 -63 19 -621 19 -553 -1 -585 -2 -619 -20z m1211 -188 c0 -55 10
-97 54 -229 l54 -161 -112 -7 c-128 -8 -1271 -3 -1280 6 -3 3 26 99 64 214 39
115 70 217 70 227 0 17 31 18 575 18 l575 0 0 -68z m-1070 -612 c45 -23 80
-81 80 -132 -1 -75 -74 -148 -150 -148 -76 0 -149 73 -150 148 0 50 35 109 78
131 48 26 93 26 142 1z m1100 0 c45 -23 80 -81 80 -132 -1 -75 -74 -148 -150
-148 -76 0 -149 73 -150 148 0 50 35 109 78 131 48 26 93 26 142 1z"/>
<path d="M717 1652 c-10 -4 -24 -20 -32 -36 -16 -31 -20 -96 -6 -96 5 0 11 -9
14 -20 4 -16 14 -20 51 -20 48 0 65 14 81 68 9 32 -20 91 -51 103 -29 10 -32
10 -57 1z"/>
<path d="M1077 1652 c-10 -4 -24 -20 -32 -36 -16 -31 -20 -96 -6 -96 5 0 11
-9 14 -20 4 -16 14 -20 51 -20 48 0 65 14 81 68 9 32 -20 91 -51 103 -29 10
-32 10 -57 1z"/>
<path d="M1467 1652 c-10 -4 -24 -20 -32 -36 -16 -31 -20 -96 -6 -96 5 0 11
-9 14 -20 4 -16 14 -20 51 -20 48 0 65 14 81 68 9 32 -20 91 -51 103 -29 10
-32 10 -57 1z"/>
<path d="M655 1409 c-50 -26 -74 -56 -75 -91 l0 -28 165 0 165 0 0 23 c0 94
-151 151 -255 96z"/>
<path d="M1015 1409 c-50 -26 -74 -56 -75 -91 l0 -28 165 0 165 0 0 23 c0 94
-151 151 -255 96z"/>
<path d="M1405 1409 c-50 -26 -74 -56 -75 -91 l0 -28 165 0 165 0 0 23 c0 94
-151 151 -255 96z"/>
</g>
</svg>
